HIERARCHY
ROOT Hips
{
	OFFSET -1.602300 6.242603 43.997101
	CHANNELS 6 Xposition Yposition Zposition Zrotation Xrotation Yrotation
	JOINT Chest
	{
		OFFSET -0.204900 1.598101 7.917301
		CHANNELS 6 Xposition Yposition Zposition Zrotation Xrotation Yrotation
		JOINT Chest2
		{
			OFFSET 0.000000 0.000000 3.404099
			CHANNELS 6 Xposition Yposition Zposition Zrotation Xrotation Yrotation
			JOINT Neck
			{
				OFFSET 0.000000 0.000000 7.928600
				CHANNELS 6 Xposition Yposition Zposition Zrotation Xrotation Yrotation
				JOINT Head
				{
					OFFSET 0.000000 0.000000 2.173897
					CHANNELS 6 Xposition Yposition Zposition Zrotation Xrotation Yrotation
					End Site
					{
						OFFSET 0.000000 0.000001 10.404503
					}
				}
			}
			JOINT LeftCollar
			{
				OFFSET 2.833800 -1.396299 4.843300
				CHANNELS 6 Xposition Yposition Zposition Zrotation Xrotation Yrotation
				JOINT LeftShoulder
				{
					OFFSET 4.363600 0.000000 0.000000
					CHANNELS 6 Xposition Yposition Zposition Zrotation Xrotation Yrotation
					JOINT LeftElbow
					{
						OFFSET 0.000000 -0.000001 -10.306900
						CHANNELS 6 Xposition Yposition Zposition Zrotation Xrotation Yrotation
						JOINT LeftWrist
						{
							OFFSET 0.000000 -0.000001 -12.404900
							CHANNELS 6 Xposition Yposition Zposition Zrotation Xrotation Yrotation
							End Site
							{
								OFFSET 0.000000 0.000000 -2.173901
							}
						}
					}
				}
			}
			JOINT RightCollar
			{
				OFFSET -2.354800 -1.897200 5.063099
				CHANNELS 6 Xposition Yposition Zposition Zrotation Xrotation Yrotation
				JOINT RightShoulder
				{
					OFFSET -4.375800 0.000000 0.000000
					CHANNELS 6 Xposition Yposition Zposition Zrotation Xrotation Yrotation
					JOINT RightElbow
					{
						OFFSET 0.000000 -0.000001 -10.005001
						CHANNELS 6 Xposition Yposition Zposition Zrotation Xrotation Yrotation
						JOINT RightWrist
						{
							OFFSET 0.000000 -0.000001 -13.174900
							CHANNELS 6 Xposition Yposition Zposition Zrotation Xrotation Yrotation
							End Site
							{
								OFFSET 0.000000 0.000000 -2.173901
							}
						}
					}
				}
			}
		}
	}
	JOINT LeftHip
	{
		OFFSET 2.240600 0.386800 -2.614101
		CHANNELS 6 Xposition Yposition Zposition Zrotation Xrotation Yrotation
		JOINT LeftKnee
		{
			OFFSET 0.000000 -0.000001 -18.592899
			CHANNELS 6 Xposition Yposition Zposition Zrotation Xrotation Yrotation
			JOINT LeftAnkle
			{
				OFFSET 0.000000 -0.000001 -18.765800
				CHANNELS 6 Xposition Yposition Zposition Zrotation Xrotation Yrotation
				End Site
				{
					OFFSET 0.000000 -8.655000 0.000000
				}
			}
		}
	}
	JOINT RightHip
	{
		OFFSET -2.014900 -0.220900 -2.615898
		CHANNELS 6 Xposition Yposition Zposition Zrotation Xrotation Yrotation
		JOINT RightKnee
		{
			OFFSET 0.000000 -0.000001 -18.633900
			CHANNELS 6 Xposition Yposition Zposition Zrotation Xrotation Yrotation
			JOINT RightAnkle
			{
				OFFSET 0.000000 -0.000001 -18.285101
				CHANNELS 6 Xposition Yposition Zposition Zrotation Xrotation Yrotation
				End Site
				{
					OFFSET 0.000000 -7.524500 0.000000
				}
			}
		}
	}
}
MOTION
Frames: 8
Frame Time: 0.041667
-7.447601 25.809004 8.639008 10.372855 -1.814427 -2.328464 -0.204901 1.598102 7.917301 -10.232561 3.932324 -0.343827 -0.000001 0.000002 3.404103 -1.452250 -14.558637 -1.452250 -0.000002 -0.000001 7.928602 50.929695 16.037865 -18.801370 0.000004 0.000002 2.173898 6.750081 1.888780 9.871875 2.833797 -1.396299 4.843302 40.143757 -8.970801 -15.387093 4.363595 0.000007 -0.000005 -85.833280 -48.463156 -133.866530 -0.000005 0.000009 -10.306901 618.052234 -141.226141 580.860925 0.000003 0.000004 -12.404897 -323.303726 353.859861 -333.847598 -2.354800 -1.897201 5.063107 3.704742 8.841491 16.526220 -4.375794 0.000005 -0.000014 67.787032 -19.380978 166.001628 0.000001 0.000003 -10.004992 -618.565154 -173.355720 -555.878060 -0.000006 0.000001 -13.174892 -10.718623 -28.861582 316.603556 2.240596 0.386805 -2.614103 132.967828 -23.981715 98.531045 0.000000 0.000000 -18.592890 -120.766665 29.269113 134.086135 -0.000001 0.000000 -18.765797 10.201369 35.926662 -1.841462 -2.014897 -0.220893 -2.615900 -116.067235 -33.352575 -94.672043 0.000001 0.000007 -18.633888 175.398670 33.869754 -183.836864 -0.000006 -0.000003 -18.285084 -8.508527 35.551005 -215.528204
-7.447700 25.806803 8.638210 10.362685 -1.820495 -2.357884 -0.204900 1.598102 7.917310 -10.220183 3.929924 -0.353717 0.000000 -0.000002 3.404102 -1.405254 -14.546491 -1.444930 0.000000 -0.000001 7.928599 50.999715 16.075634 -18.822716 0.000001 0.000003 2.173908 6.797044 1.883960 9.887514 2.833798 -1.396301 4.843303 40.050190 -8.875993 -15.279649 4.363602 0.000011 -0.000003 -85.936443 -48.473955 -134.067434 -0.000005 0.000008 -10.306899 617.953879 -141.199094 580.871034 0.000005 0.000005 -12.404892 -323.334161 353.806750 -333.742659 -2.354799 -1.897202 5.063105 3.690446 8.861949 16.498267 -4.375794 0.000004 -0.000011 67.700166 -19.346712 165.957409 -0.000000 0.000004 -10.004991 -618.629904 -173.289658 -555.852160 -0.000009 0.000003 -13.174894 -10.817951 -28.943702 316.664400 2.240596 0.386806 -2.614104 132.963497 -23.958825 98.428647 0.000002 0.000004 -18.592894 -120.726011 29.263502 134.076545 -0.000002 0.000001 -18.765799 10.176152 35.951117 -1.897547 -2.014897 -0.220895 -2.615898 -116.039901 -33.406110 -94.647543 0.000000 0.000007 -18.633884 175.450034 33.868360 -183.891014 -0.000007 -0.000002 -18.285086 -8.492555 35.585381 -215.609879
-7.448801 25.803501 8.638515 10.361539 -1.818722 -2.393309 -0.204901 1.598096 7.917306 -10.218287 3.923930 -0.347731 -0.000000 -0.000001 3.404105 -1.351964 -14.541480 -1.437433 -0.000001 0.000000 7.928597 51.062405 16.111134 -18.843640 0.000003 0.000001 2.173915 6.878706 1.893768 9.903299 2.833798 -1.396297 4.843301 40.082081 -8.858149 -15.168298 4.363596 0.000004 -0.000009 -86.176449 -48.489320 -134.276615 -0.000001 0.000006 -10.306910 617.882299 -141.273939 580.894530 0.000002 0.000003 -12.404899 -323.411698 353.727547 -333.667445 -2.354797 -1.897197 5.063107 3.641440 8.861642 16.470579 -4.375796 0.000003 -0.000013 67.721052 -19.326205 165.947902 0.000000 0.000004 -10.004993 -618.732248 -173.259701 -555.850958 -0.000007 0.000001 -13.174904 -10.810311 -29.001478 316.701610 2.240596 0.386802 -2.614102 132.954113 -23.913449 98.322062 0.000000 0.000004 -18.592890 -120.683978 29.237940 134.057093 0.000000 -0.000000 -18.765799 10.150266 35.965959 -1.904672 -2.014898 -0.220900 -2.615898 -116.025243 -33.476195 -94.635782 0.000002 0.000008 -18.633890 175.478242 33.873165 -183.936994 -0.000006 -0.000004 -18.285084 -8.477258 35.615711 -215.682621
-7.450601 25.799406 8.639904 10.368606 -1.808137 -2.433411 -0.204900 1.598099 7.917309 -10.225282 3.911653 -0.332550 0.000000 0.000001 3.404105 -1.291930 -14.541305 -1.429689 0.000001 -0.000004 7.928600 51.111989 16.147677 -18.858393 0.000003 0.000002 2.173897 6.994991 1.917845 9.913777 2.833800 -1.396301 4.843305 40.223486 -8.913389 -15.070450 4.363597 0.000008 -0.000007 -86.495712 -48.510725 -134.458407 -0.000003 0.000004 -10.306898 617.868639 -141.441333 580.938188 0.000004 0.000003 -12.404895 -323.526773 353.584495 -333.578543 -2.354798 -1.897203 5.063105 3.551843 8.835020 16.463971 -4.375795 0.000002 -0.000010 67.821176 -19.325704 165.956726 -0.000000 0.000003 -10.004988 -618.978681 -173.293538 -555.885929 -0.000006 0.000002 -13.174898 -10.604914 -29.044761 316.705135 2.240597 0.386801 -2.614102 132.945124 -23.844771 98.234841 0.000002 0.000001 -18.592896 -120.666643 29.199465 134.042995 -0.000000 0.000000 -18.765797 10.122505 35.966680 -1.867252 -2.014895 -0.220898 -2.615898 -116.024410 -33.555166 -94.638363 -0.000000 0.000006 -18.633884 175.486274 33.882601 -183.972074 -0.000007 -0.000006 -18.285086 -8.462539 35.640340 -215.743027
-7.452800 25.795107 8.642113 10.382802 -1.787813 -2.476162 -0.204899 1.598103 7.917307 -10.238914 3.887850 -0.316482 -0.000001 0.000002 3.404102 -1.226232 -14.540853 -1.421388 0.000001 0.000003 7.928599 51.149009 16.188542 -18.864334 0.000001 0.000002 2.173897 7.145931 1.962623 9.914107 2.833799 -1.396294 4.843302 40.433439 -9.022315 -15.001568 4.363597 0.000006 -0.000006 -86.862617 -48.564674 -134.623507 0.000001 0.000007 -10.306904 617.893446 -141.680417 580.993212 0.000005 0.000004 -12.404892 -323.691025 353.458956 -333.478850 -2.354797 -1.897197 5.063107 3.435114 8.789445 16.504121 -4.375795 0.000001 -0.000004 67.923267 -19.383754 165.933531 0.000001 0.000004 -10.004995 -619.382755 -173.342374 -555.978163 -0.000005 0.000006 -13.174897 -10.231031 -29.050772 316.640221 2.240597 0.386805 -2.614100 132.933554 -23.762744 98.159654 0.000001 -0.000001 -18.592892 -120.653475 29.149444 134.027095 0.000000 0.000001 -18.765797 10.111460 35.961899 -1.845620 -2.014896 -0.220899 -2.615898 -116.037961 -33.632073 -94.656723 0.000002 0.000007 -18.633888 175.485578 33.894346 -183.999231 -0.000007 -0.000005 -18.285088 -8.448067 35.660257 -215.793243
-7.454801 25.791012 8.644608 10.402977 -1.761064 -2.522115 -0.204900 1.598102 7.917309 -10.258168 3.853756 -0.299282 0.000001 -0.000000 3.404103 -1.161412 -14.537399 -1.412203 0.000001 0.000003 7.928601 51.178758 16.231168 -18.862160 0.000003 -0.000000 2.173909 7.303541 2.033965 9.891863 2.833798 -1.396296 4.843301 40.701234 -9.180661 -14.968356 4.363599 0.000007 -0.000005 -87.261780 -48.658985 -134.773511 -0.000001 0.000007 -10.306903 617.972676 -141.996149 581.073699 0.000002 0.000004 -12.404901 -323.929371 353.373033 -333.376179 -2.354798 -1.897198 5.063104 3.308646 8.730993 16.597802 -4.375793 0.000002 -0.000015 67.973947 -19.512819 165.850872 0.000004 0.000006 -10.004996 -619.722680 -173.316173 -556.105806 -0.000008 0.000001 -13.174898 -9.960583 -29.004412 316.577383 2.240597 0.386805 -2.614100 132.916082 -23.679060 98.096543 0.000000 0.000002 -18.592892 -120.644828 29.101729 134.015483 0.000000 0.000001 -18.765797 10.112755 35.955557 -1.854572 -2.014897 -0.220895 -2.615901 -116.067057 -33.696503 -94.689324 0.000001 0.000007 -18.633886 175.481370 33.905131 -184.014722 -0.000005 -0.000005 -18.285086 -8.437832 35.673569 -215.827189
-7.456201 25.787603 8.646816 10.425893 -1.730851 -2.567148 -0.204900 1.598104 7.917307 -10.279219 3.811928 -0.286942 0.000000 -0.000002 3.404103 -1.093922 -14.531379 -1.403776 0.000000 -0.000004 7.928599 51.199300 16.279081 -18.853431 0.000003 0.000001 2.173907 7.462578 2.118980 9.858960 2.833798 -1.396301 4.843295 40.996851 -9.365473 -14.951235 4.363603 0.000008 -0.000007 -87.669337 -48.769388 -134.909978 -0.000002 0.000007 -10.306907 618.000325 -142.339913 581.102003 0.000002 0.000001 -12.404900 -324.133293 353.265416 -333.214330 -2.354796 -1.897202 5.063104 3.170064 8.663350 16.741060 -4.375797 -0.000000 -0.000017 67.966229 -19.701684 165.700444 0.000000 0.000003 -10.004993 -620.049982 -173.222422 -556.263174 -0.000009 0.000004 -13.174895 -9.795661 -28.927292 316.468100 2.240595 0.386805 -2.614103 132.894922 -23.605820 98.048725 -0.000000 0.000001 -18.592890 -120.647888 29.075941 134.016316 0.000000 -0.000001 -18.765799 10.112093 35.952559 -1.904326 -2.014899 -0.220897 -2.615898 -116.109131 -33.732600 -94.732108 0.000002 0.000007 -18.633886 175.486807 33.910486 -184.019899 -0.000007 -0.000006 -18.285088 -8.432707 35.680949 -215.845603
-7.457000 25.784805 8.648701 10.449894 -1.699479 -2.608234 -0.204900 1.598099 7.917307 -10.300290 3.764577 -0.281724 0.000001 0.000001 3.404100 -1.031244 -14.522562 -1.395859 -0.000000 -0.000002 7.928605 51.225616 16.326946 -18.850964 0.000004 0.000002 2.173899 7.571647 2.189084 9.828798 2.833798 -1.396299 4.843302 41.225902 -9.514502 -14.947459 4.363597 0.000007 -0.000006 -87.912874 -48.852259 -134.957079 -0.000006 0.000010 -10.306903 618.070812 -142.578655 581.119052 0.000005 0.000004 -12.404900 -324.274706 353.222577 -333.074175 -2.354800 -1.897200 5.063108 3.036606 8.594990 16.914169 -4.375794 0.000003 -0.000015 68.004990 -19.897717 165.570520 0.000003 0.000004 -10.004991 -620.288165 -173.145705 -556.370708 -0.000006 0.000005 -13.174900 -9.700487 -28.851119 316.306197 2.240596 0.386802 -2.614103 132.872902 -23.541985 98.017217 0.000000 0.000001 -18.592892 -120.656917 29.062445 134.023679 -0.000000 -0.000000 -18.765799 10.110374 35.951951 -1.962354 -2.014897 -0.220897 -2.615900 -116.156588 -33.750960 -94.777296 0.000002 0.000007 -18.633884 175.497121 33.912511 -184.019886 -0.000005 -0.000004 -18.285084 -8.431564 35.685461 -215.855889
